<?xml version="1.0" encoding="UTF-8" standalone="no"?>
<!DOCTYPE svg PUBLIC "-//W3C//DTD SVG 1.1//EN" "http://www.w3.org/Graphics/SVG/1.1/DTD/svg11.dtd">
<svg width="100%" height="100%" viewBox="0 0 50 50" version="1.1" xmlns="http://www.w3.org/2000/svg" xmlns:xlink="http://www.w3.org/1999/xlink" xml:space="preserve" xmlns:serif="http://www.serif.com/" style="fill-rule:evenodd;clip-rule:evenodd;stroke-linejoin:round;stroke-miterlimit:2;">
    <g transform="matrix(0.145373,0,0,0.122221,18.6162,16.7255)">
        <path d="M85.4,43.737L85.4,169.399C85.4,173.636 82.513,177.07 78.951,177.07L33.829,177.07C30.267,177.07 27.38,173.636 27.38,169.399L27.38,43.737C27.38,39.501 30.267,36.067 33.829,36.067L78.951,36.067C82.513,36.067 85.4,39.501 85.4,43.737ZM72.503,51.408L40.277,51.408L40.277,161.729L72.503,161.729L72.503,51.408Z"/>
    </g>
    <g transform="matrix(0.145373,0,0,0.0989129,30.0642,20.6738)">
        <path d="M85.4,43.737L85.4,169.399C85.4,174.634 82.513,178.877 78.951,178.877L33.829,178.877C30.267,178.877 27.38,174.634 27.38,169.399L27.38,43.737C27.38,38.503 30.267,34.259 33.829,34.259L78.951,34.259C82.513,34.259 85.4,38.503 85.4,43.737ZM72.503,53.215L40.277,53.215L40.277,159.921L72.503,159.921L72.503,53.215Z"/>
    </g>
    <g transform="matrix(0.145373,0,0,0.197826,7.16814,3.91805)">
        <path d="M85.4,43.737L85.4,169.399C85.4,172.017 82.513,174.138 78.951,174.138L33.829,174.138C30.267,174.138 27.38,172.017 27.38,169.399L27.38,43.737C27.38,41.12 30.267,38.998 33.829,38.998L78.951,38.998C82.513,38.998 85.4,41.12 85.4,43.737ZM72.503,48.476L40.277,48.476L40.277,164.66L72.503,164.66L72.503,48.476Z"/>
    </g>
    <g transform="matrix(0.0803919,0,0,0.293845,3.81786,-6.31455)">
        <path d="M45.49,166.209L493.143,166.209C499.58,166.209 504.805,167.639 504.805,169.399C504.805,171.16 499.58,172.59 493.143,172.59L33.829,172.59C27.388,172.59 22.167,171.161 22.167,169.399L22.167,43.737C22.167,41.976 27.392,40.547 33.829,40.547C40.265,40.547 45.49,41.976 45.49,43.737L45.49,166.209Z"/>
    </g>
    <g id="Bar1" transform="matrix(-0.995668,-1.21934e-16,3.76827e-17,-0.307703,30.5892,47.938)">
        <rect x="12.045" y="33.705" width="6.49" height="3.493"/>
    </g>
    <g transform="matrix(-0.995668,1.21934e-16,-3.76832e-17,-0.307707,41.9252,47.9381)">
        <g id="Bar2">
            <rect x="12.045" y="33.705" width="6.49" height="3.493"/>
        </g>
    </g>
    <g transform="matrix(-0.995668,-1.21934e-16,3.76832e-17,-0.307707,53.5279,47.9381)">
        <g id="Bar3">
            <rect x="12.045" y="33.705" width="6.49" height="3.493"/>
        </g>
    </g>
</svg>
